<?xml version="1.0" ?>
<!-- Uploaded to: SVG Repo, www.svgrepo.com, Generator: SVG Repo Mixer Tools -->
<svg width="800px" height="800px" viewBox="0 0 64 64" xmlns="http://www.w3.org/2000/svg">
<g id="a"/>
<g id="b"/>
<g id="c"/>
<g id="d"/>
<g id="e"/>
<g id="f"/>
<g id="g"/>
<g id="h"/>
<g id="i"/>
<g id="j"/>
<g id="k"/>
<g id="l"/>
<g id="m"/>
<g id="n"/>
<g id="o"/>
<g id="p"/>
<g id="q"/>
<g id="r"/>
<g id="s"/>
<g id="t"/>
<g id="u">
<path d="M5,29.44v15.02c0,2.85,2.29,5.14,5.15,5.14h26.71l16.56-16.61v-3.55l-22.06-2.95-26.35,2.95Zm5.15-15.05c-2.85,0-5.15,2.3-5.15,5.14v3.61l25.86,1.67,22.56-1.67v-3.61c0-2.85-2.29-5.14-5.14-5.14H10.15Z" fill="#8fd7f8" fill-rule="evenodd"/>
<rect fill="#f5e680" height="6.29" width="48.41" x="5" y="23.15"/>
<path d="M12.16,39.69h9.03c1.68,0,3.03,1.35,3.03,3.03s-1.35,3.03-3.03,3.03H12.16c-1.68,0-3.03-1.35-3.03-3.03s1.35-3.03,3.03-3.03Z" fill="#9fa9b6" fill-rule="evenodd"/>
<path d="M18.55,39.69c1.68,0,3.03,1.35,3.03,3.03s-1.35,3.03-3.03,3.03h2.64c1.68,0,3.03-1.35,3.03-3.03s-1.35-3.03-3.03-3.03h-2.64Z" fill="#8996a8" fill-rule="evenodd"/>
<path d="M49.58,28.93v7.9l3.83-3.84v-3.55l-3.83-.51Zm-5.14-14.54c2.85,0,5.14,2.3,5.14,5.14v3.89l3.83-.28v-3.61c0-2.85-2.29-5.14-5.14-5.14h-3.83Z" fill="#75cdf8" fill-rule="evenodd"/>
<rect fill="#f2d865" height="6.29" width="3.83" x="49.58" y="23.15"/>
<path d="M36.85,35c-1.35,0-2.43,1.09-2.43,2.43s1.09,2.43,2.43,2.43v4.86c-1.35,0-2.43,1.09-2.43,2.43s1.09,2.43,2.43,2.43h11.4c.56,0,1.08-.19,1.49-.51l-1.08-10.63-3.87-3.46h-7.94Z" fill="#8996a8" fill-rule="evenodd"/>
<path d="M43.36,44.74h-6.51c-1.35,0-2.43-1.09-2.43-2.43s1.09-2.43,2.43-2.43h5.58l.92,4.87Z" fill="#7a8594" fill-rule="evenodd"/>
<circle cx="50.69" cy="40.84" fill="#e8a3c1" r="8.31" transform="translate(-.7 80.78) rotate(-76.72)"/>
<circle cx="50.69" cy="40.84" fill="#8996a8" r="3.48"/>
<path d="M50.69,32.52c-.37,0-.75,.03-1.12,.08,4.11,.57,7.18,4.08,7.18,8.23,0,4.16-3.07,7.67-7.19,8.23,.37,.05,.75,.08,1.13,.08,4.59,0,8.31-3.72,8.31-8.31s-3.72-8.31-8.31-8.31Z" fill="#e38fb6" fill-rule="evenodd"/>
<path d="M21.19,38.69H12.16c-2.22,0-4.03,1.81-4.03,4.03s1.81,4.03,4.03,4.03h9.03c2.22,0,4.03-1.81,4.03-4.03s-1.81-4.03-4.03-4.03Zm0,6.05H12.16c-1.12,0-2.03-.91-2.03-2.03s.91-2.03,2.03-2.03h9.03c1.12,0,2.03,.91,2.03,2.03s-.91,2.03-2.03,2.03Z"/>
<path d="M54.41,32.31v-12.77c0-3.39-2.76-6.14-6.14-6.14H10.14c-3.39,0-6.14,2.76-6.14,6.14v24.92c0,3.39,2.76,6.14,6.14,6.14H48.25c.62,0,1.21-.21,1.74-.52,.23,.02,.46,.07,.69,.07,5.12,0,9.31-4.17,9.31-9.31,0-3.69-2.15-7.01-5.59-8.52Zm2.08,12.92l-2.07-2.07c.25-.41,.43-.84,.54-1.32h2.94c-.18,1.27-.67,2.42-1.4,3.39Zm-19.64-1.5c-.79,0-1.43-.64-1.43-1.43s.64-1.43,1.43-1.43h4.52c0,1.01,.2,1.96,.51,2.87h-5.03Zm-1.43-6.3c0-.79,.64-1.43,1.43-1.43h5.91c-.54,.88-.95,1.83-1.17,2.87h-4.74c-.79,0-1.43-.64-1.43-1.43Zm19.66-2.41l-2.07,2.07c-.41-.25-.84-.43-1.32-.54v-2.94c1.27,.18,2.42,.67,3.4,1.4Zm-4.4,8.29c-1.37,0-2.48-1.11-2.48-2.48s1.11-2.48,2.48-2.48,2.48,1.11,2.48,2.48-1.11,2.48-2.48,2.48Zm-7.21-3.48c.18-1.27,.67-2.42,1.4-3.39l2.07,2.07c-.25,.41-.43,.84-.54,1.32h-2.94Zm6.21-3.28c-.48,.11-.91,.29-1.32,.54l-2.07-2.07c.97-.74,2.13-1.23,3.39-1.4v2.94Zm-6.21,5.28h2.94c.11,.48,.29,.91,.54,1.32l-2.07,2.07c-.74-.97-1.23-2.13-1.4-3.39Zm4.89,2.74c.41,.25,.84,.43,1.32,.54v2.94c-1.27-.18-2.42-.67-3.39-1.4l2.07-2.07Zm3.32,.54c.48-.11,.91-.29,1.32-.54l2.07,2.07c-.97,.74-2.13,1.23-3.4,1.4v-2.94Zm3.28-5.28c-.11-.48-.29-.91-.54-1.32l2.07-2.07c.74,.97,1.23,2.13,1.4,3.39h-2.94ZM6,24.15H52.41v4.29H6v-4.29Zm4.14-8.75H48.27c2.29,0,4.14,1.86,4.14,4.14v2.61H6v-2.61c0-2.29,1.86-4.14,4.14-4.14Zm-4.14,29.06v-14.02H52.41v1.25c-.56-.11-1.14-.17-1.73-.17-2.43,0-4.62,.95-6.28,2.48h-7.56c-1.89,0-3.43,1.54-3.43,3.43,0,.95,.39,1.81,1.02,2.43-.63,.62-1.02,1.48-1.02,2.43s.39,1.81,1.02,2.43c-.63,.62-1.02,1.48-1.02,2.43,0,.52,.13,.99,.34,1.43H10.14c-2.29,0-4.14-1.86-4.14-4.14Zm30.85,4.14c-.79,0-1.43-.64-1.43-1.43s.64-1.43,1.43-1.43h5.95c.75,1.21,1.54,2.06,2.77,2.87h-8.71Z"/>
<path d="M10.18,36.72c.35,0,.67-.19,.85-.49,.09-.15,.13-.32,.13-.49,0-.35-.19-.67-.49-.85-.15-.09-.32-.13-.49-.13-.35,0-.67,.19-.85,.49-.09,.15-.13,.32-.13,.49,0,.35,.19,.67,.49,.85,.15,.09,.32,.13,.49,.13Z"/>
<path d="M13.14,36.59c.15,.09,.32,.13,.49,.13,.35,0,.67-.19,.85-.49,.09-.15,.13-.32,.13-.49,0-.35-.19-.67-.49-.85-.15-.09-.32-.13-.49-.13-.35,0-.67,.19-.85,.49-.08,.15-.13,.32-.13,.49,0,.35,.19,.67,.49,.85Z"/>
<path d="M17.08,36.72c.35,0,.67-.19,.85-.49,.09-.15,.13-.32,.13-.49,0-.35-.19-.67-.49-.85-.15-.09-.32-.13-.49-.13-.35,0-.67,.19-.85,.49-.09,.15-.13,.32-.13,.49,0,.35,.19,.67,.49,.85,.15,.09,.32,.13,.49,.13Z"/>
</g>
<g id="v"/>
<g id="w"/>
<g id="x"/>
<g id="y"/>
<g id="a`"/>
<g id="aa"/>
<g id="ab"/>
<g id="ac"/>
<g id="ad"/>
<g id="ae"/>
<g id="af"/>
<g id="ag"/>
<g id="ah"/>
<g id="ai"/>
<g id="aj"/>
<g id="ak"/>
<g id="al"/>
<g id="am"/>
<g id="an"/>
<g id="ao"/>
<g id="ap"/>
<g id="aq"/>
<g id="ar"/>
<g id="as"/>
<g id="at"/>
<g id="au"/>
<g id="av"/>
<g id="aw"/>
<g id="ax"/>
</svg>